<svg width="64" height="64" viewBox="0 0 64 64" fill="none" xmlns="http://www.w3.org/2000/svg">
	<path
		d="M49.5622 38.1231C49.7629 38.5147 50.1826 38.7416 50.6187 38.6824C52.0846 38.4832 55.4049 37.9585 57.026 37.1081C59.1424 35.9978 60.8252 34.4712 62.0744 32.5282C63.3582 30.5852 64 28.3819 64 25.9184C64 23.6631 63.4101 21.6333 62.2304 19.8291C61.0855 18.0248 59.5241 16.6023 57.5463 15.5614C55.6034 14.5205 53.4001 14 50.9366 14H45.4753C44.8783 14 44.4942 14.6332 44.77 15.1626L47.9583 21.2845C48.1274 21.6093 48.4516 21.8235 48.8159 21.861C49.5521 21.9368 50.7991 22.0923 51.457 22.3273C52.4286 22.6742 53.2093 23.16 53.7991 23.7845C54.389 24.4091 54.6839 25.1724 54.6839 26.0745C54.6839 27.0114 54.389 27.8614 53.7991 28.6248C53.2093 29.3535 52.4286 29.9432 51.457 30.3942C50.4856 30.8106 49.4099 31.0189 48.2302 31.0189H47.2205C46.6257 31.0189 46.2414 31.6478 46.5129 32.177L49.5622 38.1231Z"
		fill="#FFEFB6" />
	<path
		d="M6.27723 50.4318H1.73707C0.449152 50.4318 -0.389732 49.0778 0.183606 47.9246L13.7001 20.4269C13.9916 19.8338 14.8374 19.8344 15.128 20.4279L18.6706 27.6596C18.8145 27.9532 18.8147 28.2969 18.6713 28.591L14.415 37.3164H22.1436C22.5374 37.3164 22.8987 37.5345 23.082 37.883L25.6208 42.7085C25.8994 43.238 25.5154 43.874 24.917 43.874H11.152L8.60702 48.9888C8.16712 49.8728 7.26471 50.4318 6.27723 50.4318Z"
		fill="#FFEFB6" />
	<path
		d="M18.1383 14.0779C18.3069 14.0263 18.4824 14 18.6587 14H38.369C38.9395 14 39.4664 14.3056 39.7497 14.8008L43.0767 20.6166C43.3799 21.1468 42.9972 21.8068 42.3863 21.8068H29.235L33.7884 31.0189H40.3839C40.9829 31.0189 41.5312 31.3555 41.8024 31.8897L44.7087 37.6185C44.9771 38.1476 44.5928 38.7735 43.9994 38.7735H37.6215L42.1465 47.9282C42.7164 49.0813 41.8774 50.4318 40.5912 50.4318H35.8341C34.8475 50.4318 33.9457 49.8739 33.5054 48.991L17.6066 15.2797C17.3808 14.8008 17.632 14.2329 18.1383 14.0779Z"
		fill="#FFEFB6" />
</svg>
